<svg width="24" height="28" viewBox="0 0 24 28" fill="none" xmlns="http://www.w3.org/2000/svg">
<path d="M23.1137 4.3054C22.9447 4.1374 22.7457 4.0529 22.5157 4.0529C22.4012 4.0529 22.1597 4.1469 21.7927 4.3324C21.4252 4.5184 21.0352 4.7254 20.6247 4.9564C20.2132 5.1859 19.7262 5.3939 19.1642 5.5799C18.6027 5.7654 18.0827 5.8594 17.6042 5.8594C17.1622 5.8594 16.7722 5.7754 16.4362 5.6069C15.3217 5.0849 14.3522 4.6954 13.5292 4.4384C12.7062 4.1819 11.8212 4.0529 10.8737 4.0529C9.23774 4.0529 7.37424 4.5849 5.28524 5.6469C4.85424 5.8619 4.54524 6.0284 4.34524 6.1504L4.14674 4.6949C4.59524 4.3054 4.88474 3.7379 4.88474 3.0974C4.88474 1.9239 3.93374 0.9729 2.76024 0.9729C1.58674 0.9729 0.635742 1.9239 0.635742 3.0974C0.635742 3.8629 1.04474 4.5284 1.65174 4.9024L4.52174 25.9474C4.60724 26.5739 5.14324 27.0284 5.75874 27.0284C5.81474 27.0284 5.87174 27.0249 5.92924 27.0174C6.61324 26.9234 7.09224 26.2939 6.99874 25.6099L5.84524 17.1514C7.93824 16.1129 9.74874 15.5894 11.2717 15.5894C11.9182 15.5894 12.5487 15.6859 13.1632 15.8809C13.7782 16.0764 14.2897 16.2884 14.6967 16.5179C15.1037 16.7479 15.5842 16.9609 16.1367 17.1549C16.6902 17.3499 17.2367 17.4474 17.7762 17.4474C19.1392 17.4474 20.7717 16.9339 22.6742 15.9074C22.9132 15.7834 23.0882 15.6614 23.1987 15.5419C23.3092 15.4224 23.3647 15.2524 23.3647 15.0314V4.9029C23.3647 4.6734 23.2812 4.4739 23.1137 4.3054Z" fill="#F0145A"/>
</svg>
